<svg width="15" height="15" viewBox="0 0 15 15" fill="none" xmlns="http://www.w3.org/2000/svg">
<g opacity="0.3" clip-path="url(#clip0_33716_690)">
<g filter="url(#filter0_d_33716_690)">
<mask id="path-1-inside-1_33716_690" fill="white">
<path d="M5.5 10C5.8 10 6 9.8 6 9.5C6 9.2 5.8 9 5.5 9C5.2 9 5 9.2 5 9.5C5 9.8 5.2 10 5.5 10Z"/>
</mask>
<path d="M5.5 10C5.8 10 6 9.8 6 9.5C6 9.2 5.8 9 5.5 9C5.2 9 5 9.2 5 9.5C5 9.8 5.2 10 5.5 10Z" fill="black"/>
<path d="M5.5 11C5.87725 11 6.26933 10.8699 6.56961 10.5696C6.86989 10.2693 7 9.87725 7 9.5H5C5 9.42275 5.03011 9.28067 5.15539 9.15539C5.28067 9.03011 5.42275 9 5.5 9V11ZM7 9.5C7 9.12275 6.86989 8.73067 6.56961 8.43039C6.26933 8.13011 5.87725 8 5.5 8V10C5.42275 10 5.28067 9.96989 5.15539 9.84461C5.03011 9.71933 5 9.57725 5 9.5H7ZM5.5 8C5.12275 8 4.73067 8.13011 4.43039 8.43039C4.13011 8.73067 4 9.12275 4 9.5H6C6 9.57725 5.96989 9.71933 5.84461 9.84461C5.71933 9.96989 5.57725 10 5.5 10V8ZM4 9.5C4 9.87725 4.13011 10.2693 4.43039 10.5696C4.73067 10.8699 5.12275 11 5.5 11V9C5.57725 9 5.71933 9.03011 5.84461 9.15539C5.96989 9.28067 6 9.42275 6 9.5H4Z" fill="black" mask="url(#path-1-inside-1_33716_690)"/>
<mask id="path-3-inside-2_33716_690" fill="white">
<path d="M14 2H12V0H11V2H4V0H3V2H1C0.4 2 0 2.4 0 3V6V7V14C0 14.5 0.4 15 1 15H14C14.5 15 15 14.5 15 14V7V6V3C15 2.4 14.5 2 14 2ZM14 14H1V7H14V14ZM1 6V3H3V5H4V3H11V5H12V3H14V6H1Z"/>
</mask>
<path d="M14 2H12V0H11V2H4V0H3V2H1C0.4 2 0 2.4 0 3V6V7V14C0 14.5 0.4 15 1 15H14C14.5 15 15 14.5 15 14V7V6V3C15 2.4 14.5 2 14 2ZM14 14H1V7H14V14ZM1 6V3H3V5H4V3H11V5H12V3H14V6H1Z" fill="black"/>
<path d="M12 2H11V3H12V2ZM12 0H13V-1H12V0ZM11 0V-1H10V0H11ZM11 2V3H12V2H11ZM4 2H3V3H4V2ZM4 0H5V-1H4V0ZM3 0V-1H2V0H3ZM3 2V3H4V2H3ZM14 14V15H15V14H14ZM1 14H0V15H1V14ZM1 7V6H0V7H1ZM14 7H15V6H14V7ZM1 6H0V7H1V6ZM1 3V2H0V3H1ZM3 3H4V2H3V3ZM3 5H2V6H3V5ZM4 5V6H5V5H4ZM4 3V2H3V3H4ZM11 3H12V2H11V3ZM11 5H10V6H11V5ZM12 5V6H13V5H12ZM12 3V2H11V3H12ZM14 3H15V2H14V3ZM14 6V7H15V6H14ZM14 1H12V3H14V1ZM13 2V0H11V2H13ZM12 -1H11V1H12V-1ZM10 0V2H12V0H10ZM11 1H4V3H11V1ZM5 2V0H3V2H5ZM4 -1H3V1H4V-1ZM2 0V2H4V0H2ZM3 1H1V3H3V1ZM1 1C0.472752 1 -0.0443275 1.18011 -0.432107 1.56789C-0.819886 1.95567 -1 2.47275 -1 3H1C1 2.96128 1.00634 2.9467 1.00522 2.9496C1.00474 2.95085 1.00288 2.95525 0.998774 2.96162C0.994639 2.96804 0.989071 2.97514 0.982107 2.98211C0.975143 2.98907 0.96804 2.99464 0.961623 2.99877C0.955246 3.00288 0.950855 3.00474 0.949604 3.00522C0.946698 3.00634 0.961282 3 1 3V1ZM-1 3V6H1V3H-1ZM-1 6V7H1V6H-1ZM-1 7V14H1V7H-1ZM-1 14C-1 14.9862 -0.216147 16 1 16V14H-1ZM1 16H14V14H1V16ZM14 16C14.5752 16 15.0668 15.7225 15.3946 15.3946C15.7225 15.0668 16 14.5752 16 14H14C14 13.9791 14.0026 13.9638 14.0047 13.9549C14.0068 13.9461 14.0086 13.9428 14.0079 13.9443C14.0072 13.9458 14.0047 13.9506 13.9997 13.9577C13.9947 13.9648 13.9882 13.9726 13.9804 13.9804C13.9726 13.9882 13.9648 13.9947 13.9577 13.9997C13.9506 14.0047 13.9458 14.0072 13.9443 14.0079C13.9428 14.0086 13.9461 14.0068 13.9549 14.0047C13.9638 14.0026 13.9791 14 14 14V16ZM16 14V7H14V14H16ZM16 7V6H14V7H16ZM16 6V3H14V6H16ZM16 3C16 1.78385 14.9862 1 14 1V3H16ZM14 13H1V15H14V13ZM2 14V7H0V14H2ZM1 8H14V6H1V8ZM13 7V14H15V7H13ZM2 6V3H0V6H2ZM1 4H3V2H1V4ZM2 3V5H4V3H2ZM3 6H4V4H3V6ZM5 5V3H3V5H5ZM4 4H11V2H4V4ZM10 3V5H12V3H10ZM11 6H12V4H11V6ZM13 5V3H11V5H13ZM12 4H14V2H12V4ZM13 3V6H15V3H13ZM14 5H1V7H14V5Z" fill="black" mask="url(#path-3-inside-2_33716_690)"/>
<mask id="path-5-inside-3_33716_690" fill="white">
<path d="M7.5 10C7.8 10 8 9.8 8 9.5C8 9.2 7.8 9 7.5 9C7.2 9 7 9.2 7 9.5C7 9.8 7.2 10 7.5 10Z"/>
</mask>
<path d="M7.5 10C7.8 10 8 9.8 8 9.5C8 9.2 7.8 9 7.5 9C7.2 9 7 9.2 7 9.5C7 9.8 7.2 10 7.5 10Z" fill="black"/>
<path d="M7.5 11C7.87725 11 8.26933 10.8699 8.56961 10.5696C8.86989 10.2693 9 9.87725 9 9.5H7C7 9.42275 7.03011 9.28067 7.15539 9.15539C7.28067 9.03011 7.42275 9 7.5 9V11ZM9 9.5C9 9.12275 8.86989 8.73067 8.56961 8.43039C8.26933 8.13011 7.87725 8 7.5 8V10C7.42275 10 7.28067 9.96989 7.15539 9.84461C7.03011 9.71933 7 9.57725 7 9.5H9ZM7.5 8C7.12275 8 6.73067 8.13011 6.43039 8.43039C6.13011 8.73067 6 9.12275 6 9.5H8C8 9.57725 7.96989 9.71933 7.84461 9.84461C7.71933 9.96989 7.57725 10 7.5 10V8ZM6 9.5C6 9.87725 6.13011 10.2693 6.43039 10.5696C6.73067 10.8699 7.12275 11 7.5 11V9C7.57725 9 7.71933 9.03011 7.84461 9.15539C7.96989 9.28067 8 9.42275 8 9.5H6Z" fill="black" mask="url(#path-5-inside-3_33716_690)"/>
<mask id="path-7-inside-4_33716_690" fill="white">
<path d="M9.5 10C9.8 10 10 9.8 10 9.5C10 9.2 9.8 9 9.5 9C9.2 9 9 9.2 9 9.5C9 9.8 9.2 10 9.5 10Z"/>
</mask>
<path d="M9.5 10C9.8 10 10 9.8 10 9.5C10 9.2 9.8 9 9.5 9C9.2 9 9 9.2 9 9.5C9 9.8 9.2 10 9.5 10Z" fill="black"/>
<path d="M9.5 11C9.87725 11 10.2693 10.8699 10.5696 10.5696C10.8699 10.2693 11 9.87725 11 9.5H9C9 9.42275 9.03011 9.28067 9.15539 9.15539C9.28067 9.03011 9.42275 9 9.5 9V11ZM11 9.5C11 9.12275 10.8699 8.73067 10.5696 8.43039C10.2693 8.13011 9.87725 8 9.5 8V10C9.42275 10 9.28067 9.96989 9.15539 9.84461C9.03011 9.71933 9 9.57725 9 9.5H11ZM9.5 8C9.12275 8 8.73067 8.13011 8.43039 8.43039C8.13011 8.73067 8 9.12275 8 9.5H10C10 9.57725 9.96989 9.71933 9.84461 9.84461C9.71933 9.96989 9.57725 10 9.5 10V8ZM8 9.5C8 9.87725 8.13011 10.2693 8.43039 10.5696C8.73067 10.8699 9.12275 11 9.5 11V9C9.57725 9 9.71933 9.03011 9.84461 9.15539C9.96989 9.28067 10 9.42275 10 9.5H8Z" fill="black" mask="url(#path-7-inside-4_33716_690)"/>
<mask id="path-9-inside-5_33716_690" fill="white">
<path d="M5.5 11C5.2 11 5 11.2 5 11.5C5 11.8 5.2 12 5.5 12C5.8 12 6 11.8 6 11.5C6 11.2 5.8 11 5.5 11Z"/>
</mask>
<path d="M5.5 11C5.2 11 5 11.2 5 11.5C5 11.8 5.2 12 5.5 12C5.8 12 6 11.8 6 11.5C6 11.2 5.8 11 5.5 11Z" fill="black"/>
<path d="M5.5 10C5.12275 10 4.73067 10.1301 4.43039 10.4304C4.13011 10.7307 4 11.1228 4 11.5H6C6 11.5772 5.96989 11.7193 5.84461 11.8446C5.71933 11.9699 5.57725 12 5.5 12V10ZM4 11.5C4 11.8772 4.13011 12.2693 4.43039 12.5696C4.73067 12.8699 5.12275 13 5.5 13V11C5.57725 11 5.71933 11.0301 5.84461 11.1554C5.96989 11.2807 6 11.4228 6 11.5H4ZM5.5 13C5.87725 13 6.26933 12.8699 6.56961 12.5696C6.86989 12.2693 7 11.8772 7 11.5H5C5 11.4228 5.03011 11.2807 5.15539 11.1554C5.28067 11.0301 5.42275 11 5.5 11V13ZM7 11.5C7 11.1228 6.86989 10.7307 6.56961 10.4304C6.26933 10.1301 5.87725 10 5.5 10V12C5.42275 12 5.28067 11.9699 5.15539 11.8446C5.03011 11.7193 5 11.5772 5 11.5H7Z" fill="black" mask="url(#path-9-inside-5_33716_690)"/>
<mask id="path-11-inside-6_33716_690" fill="white">
<path d="M3.5 10C3.8 10 4 9.8 4 9.5C4 9.2 3.8 9 3.5 9C3.2 9 3 9.2 3 9.5C3 9.8 3.2 10 3.5 10Z"/>
</mask>
<path d="M3.5 10C3.8 10 4 9.8 4 9.5C4 9.2 3.8 9 3.5 9C3.2 9 3 9.2 3 9.5C3 9.8 3.2 10 3.5 10Z" fill="black"/>
<path d="M3.5 11C3.87725 11 4.26933 10.8699 4.56961 10.5696C4.86989 10.2693 5 9.87725 5 9.5H3C3 9.42275 3.03011 9.28067 3.15539 9.15539C3.28067 9.03011 3.42275 9 3.5 9V11ZM5 9.5C5 9.12275 4.86989 8.73067 4.56961 8.43039C4.26933 8.13011 3.87725 8 3.5 8V10C3.42275 10 3.28067 9.96989 3.15539 9.84461C3.03011 9.71933 3 9.57725 3 9.5H5ZM3.5 8C3.12275 8 2.73067 8.13011 2.43039 8.43039C2.13011 8.73067 2 9.12275 2 9.5H4C4 9.57725 3.96989 9.71933 3.84461 9.84461C3.71933 9.96989 3.57725 10 3.5 10V8ZM2 9.5C2 9.87725 2.13011 10.2693 2.43039 10.5696C2.73067 10.8699 3.12275 11 3.5 11V9C3.57725 9 3.71933 9.03011 3.84461 9.15539C3.96989 9.28067 4 9.42275 4 9.5H2Z" fill="black" mask="url(#path-11-inside-6_33716_690)"/>
<mask id="path-13-inside-7_33716_690" fill="white">
<path d="M3.5 11C3.2 11 3 11.2 3 11.5C3 11.8 3.2 12 3.5 12C3.8 12 4 11.8 4 11.5C4 11.2 3.8 11 3.5 11Z"/>
</mask>
<path d="M3.5 11C3.2 11 3 11.2 3 11.5C3 11.8 3.2 12 3.5 12C3.8 12 4 11.8 4 11.5C4 11.2 3.8 11 3.5 11Z" fill="black"/>
<path d="M3.5 10C3.12275 10 2.73067 10.1301 2.43039 10.4304C2.13011 10.7307 2 11.1228 2 11.5H4C4 11.5772 3.96989 11.7193 3.84461 11.8446C3.71933 11.9699 3.57725 12 3.5 12V10ZM2 11.5C2 11.8772 2.13011 12.2693 2.43039 12.5696C2.73067 12.8699 3.12275 13 3.5 13V11C3.57725 11 3.71933 11.0301 3.84461 11.1554C3.96989 11.2807 4 11.4228 4 11.5H2ZM3.5 13C3.87725 13 4.26933 12.8699 4.56961 12.5696C4.86989 12.2693 5 11.8772 5 11.5H3C3 11.4228 3.03011 11.2807 3.15539 11.1554C3.28067 11.0301 3.42275 11 3.5 11V13ZM5 11.5C5 11.1228 4.86989 10.7307 4.56961 10.4304C4.26933 10.1301 3.87725 10 3.5 10V12C3.42275 12 3.28067 11.9699 3.15539 11.8446C3.03011 11.7193 3 11.5772 3 11.5H5Z" fill="black" mask="url(#path-13-inside-7_33716_690)"/>
<mask id="path-15-inside-8_33716_690" fill="white">
<path d="M7.5 11C7.2 11 7 11.2 7 11.5C7 11.8 7.2 12 7.5 12C7.8 12 8 11.8 8 11.5C8 11.2 7.8 11 7.5 11Z"/>
</mask>
<path d="M7.5 11C7.2 11 7 11.2 7 11.5C7 11.8 7.2 12 7.5 12C7.8 12 8 11.8 8 11.5C8 11.2 7.8 11 7.5 11Z" fill="black"/>
<path d="M7.5 10C7.12275 10 6.73067 10.1301 6.43039 10.4304C6.13011 10.7307 6 11.1228 6 11.5H8C8 11.5772 7.96989 11.7193 7.84461 11.8446C7.71933 11.9699 7.57725 12 7.5 12V10ZM6 11.5C6 11.8772 6.13011 12.2693 6.43039 12.5696C6.73067 12.8699 7.12275 13 7.5 13V11C7.57725 11 7.71933 11.0301 7.84461 11.1554C7.96989 11.2807 8 11.4228 8 11.5H6ZM7.5 13C7.87725 13 8.26933 12.8699 8.56961 12.5696C8.86989 12.2693 9 11.8772 9 11.5H7C7 11.4228 7.03011 11.2807 7.15539 11.1554C7.28067 11.0301 7.42275 11 7.5 11V13ZM9 11.5C9 11.1228 8.86989 10.7307 8.56961 10.4304C8.26933 10.1301 7.87725 10 7.5 10V12C7.42275 12 7.28067 11.9699 7.15539 11.8446C7.03011 11.7193 7 11.5772 7 11.5H9Z" fill="black" mask="url(#path-15-inside-8_33716_690)"/>
<mask id="path-17-inside-9_33716_690" fill="white">
<path d="M9.5 11C9.2 11 9 11.2 9 11.5C9 11.8 9.2 12 9.5 12C9.8 12 10 11.8 10 11.5C10 11.2 9.8 11 9.5 11Z"/>
</mask>
<path d="M9.5 11C9.2 11 9 11.2 9 11.5C9 11.8 9.2 12 9.5 12C9.8 12 10 11.8 10 11.5C10 11.2 9.8 11 9.5 11Z" fill="black"/>
<path d="M9.5 10C9.12275 10 8.73067 10.1301 8.43039 10.4304C8.13011 10.7307 8 11.1228 8 11.5H10C10 11.5772 9.96989 11.7193 9.84461 11.8446C9.71933 11.9699 9.57725 12 9.5 12V10ZM8 11.5C8 11.8772 8.13011 12.2693 8.43039 12.5696C8.73067 12.8699 9.12275 13 9.5 13V11C9.57725 11 9.71933 11.0301 9.84461 11.1554C9.96989 11.2807 10 11.4228 10 11.5H8ZM9.5 13C9.87725 13 10.2693 12.8699 10.5696 12.5696C10.8699 12.2693 11 11.8772 11 11.5H9C9 11.4228 9.03011 11.2807 9.15539 11.1554C9.28067 11.0301 9.42275 11 9.5 11V13ZM11 11.5C11 11.1228 10.8699 10.7307 10.5696 10.4304C10.2693 10.1301 9.87725 10 9.5 10V12C9.42275 12 9.28067 11.9699 9.15539 11.8446C9.03011 11.7193 9 11.5772 9 11.5H11Z" fill="black" mask="url(#path-17-inside-9_33716_690)"/>
<mask id="path-19-inside-10_33716_690" fill="white">
<path d="M11.5 10C11.8 10 12 9.8 12 9.5C12 9.2 11.8 9 11.5 9C11.2 9 11 9.2 11 9.5C11 9.8 11.2 10 11.5 10Z"/>
</mask>
<path d="M11.5 10C11.8 10 12 9.8 12 9.5C12 9.2 11.8 9 11.5 9C11.2 9 11 9.2 11 9.5C11 9.8 11.2 10 11.5 10Z" fill="black"/>
<path d="M11.5 11C11.8772 11 12.2693 10.8699 12.5696 10.5696C12.8699 10.2693 13 9.87725 13 9.5H11C11 9.42275 11.0301 9.28067 11.1554 9.15539C11.2807 9.03011 11.4228 9 11.5 9V11ZM13 9.5C13 9.12275 12.8699 8.73067 12.5696 8.43039C12.2693 8.13011 11.8772 8 11.5 8V10C11.4228 10 11.2807 9.96989 11.1554 9.84461C11.0301 9.71933 11 9.57725 11 9.5H13ZM11.5 8C11.1228 8 10.7307 8.13011 10.4304 8.43039C10.1301 8.73067 10 9.12275 10 9.5H12C12 9.57725 11.9699 9.71933 11.8446 9.84461C11.7193 9.96989 11.5772 10 11.5 10V8ZM10 9.5C10 9.87725 10.1301 10.2693 10.4304 10.5696C10.7307 10.8699 11.1228 11 11.5 11V9C11.5772 9 11.7193 9.03011 11.8446 9.15539C11.9699 9.28067 12 9.42275 12 9.5H10Z" fill="black" mask="url(#path-19-inside-10_33716_690)"/>
<mask id="path-21-inside-11_33716_690" fill="white">
<path d="M11.5 11C11.2 11 11 11.2 11 11.5C11 11.8 11.2 12 11.5 12C11.8 12 12 11.8 12 11.5C12 11.2 11.8 11 11.5 11Z"/>
</mask>
<path d="M11.5 11C11.2 11 11 11.2 11 11.5C11 11.8 11.2 12 11.5 12C11.8 12 12 11.8 12 11.5C12 11.2 11.8 11 11.5 11Z" fill="black"/>
<path d="M11.5 10C11.1228 10 10.7307 10.1301 10.4304 10.4304C10.1301 10.7307 10 11.1228 10 11.5H12C12 11.5772 11.9699 11.7193 11.8446 11.8446C11.7193 11.9699 11.5772 12 11.5 12V10ZM10 11.5C10 11.8772 10.1301 12.2693 10.4304 12.5696C10.7307 12.8699 11.1228 13 11.5 13V11C11.5772 11 11.7193 11.0301 11.8446 11.1554C11.9699 11.2807 12 11.4228 12 11.5H10ZM11.5 13C11.8772 13 12.2693 12.8699 12.5696 12.5696C12.8699 12.2693 13 11.8772 13 11.5H11C11 11.4228 11.0301 11.2807 11.1554 11.1554C11.2807 11.0301 11.4228 11 11.5 11V13ZM13 11.5C13 11.1228 12.8699 10.7307 12.5696 10.4304C12.2693 10.1301 11.8772 10 11.5 10V12C11.4228 12 11.2807 11.9699 11.1554 11.8446C11.0301 11.7193 11 11.5772 11 11.5H13Z" fill="black" mask="url(#path-21-inside-11_33716_690)"/>
</g>
</g>
<defs>
<filter id="filter0_d_33716_690" x="-4" y="0" width="23" height="23" filterUnits="userSpaceOnUse" color-interpolation-filters="sRGB">
<feFlood flood-opacity="0" result="BackgroundImageFix"/>
<feColorMatrix in="SourceAlpha" type="matrix" values="0 0 0 0 0 0 0 0 0 0 0 0 0 0 0 0 0 0 127 0" result="hardAlpha"/>
<feOffset dy="4"/>
<feGaussianBlur stdDeviation="2"/>
<feComposite in2="hardAlpha" operator="out"/>
<feColorMatrix type="matrix" values="0 0 0 0 0 0 0 0 0 0 0 0 0 0 0 0 0 0 0.25 0"/>
<feBlend mode="normal" in2="BackgroundImageFix" result="effect1_dropShadow_33716_690"/>
<feBlend mode="normal" in="SourceGraphic" in2="effect1_dropShadow_33716_690" result="shape"/>
</filter>
<clipPath id="clip0_33716_690">
<rect width="15" height="15" fill="white"/>
</clipPath>
</defs>
</svg>
