<svg width="116" height="17" fill="none" xmlns="http://www.w3.org/2000/svg"><g clip-path="url(#a)"><path fill-rule="evenodd" clip-rule="evenodd" d="M23.45 2.45c.17-.55 0-.95-.8-.95h-2.62c-.67 0-.98.35-1.14.73 0 0-1.34 3.2-3.23 5.27-.61.6-.89.8-1.22.8-.17 0-.42-.2-.42-.74V2.45c0-.66-.18-.95-.74-.95H9.15c-.42 0-.67.3-.67.6 0 .61.95.76 1.05 2.5v3.8c0 .84-.16.99-.5.99-.88 0-3.05-3.21-4.33-6.89-.25-.71-.5-1-1.17-1H.9c-.75 0-.9.35-.9.73 0 .68.89 4.07 4.14 8.55 2.18 3.06 5.23 4.72 8.01 4.72 1.67 0 1.88-.37 1.88-1v-2.32c0-.73.16-.88.69-.88.38 0 1.05.2 2.61 1.67 1.78 1.75 2.07 2.53 3.08 2.53h2.62c.75 0 1.13-.37.91-1.1-.24-.72-1.09-1.77-2.21-3.02-.62-.7-1.54-1.47-1.81-1.86-.4-.49-.28-.7 0-1.14 0 0 3.2-4.43 3.53-5.93Z" fill="#83B3D3"/></g><g clip-path="url(#b)"><path d="M66.79.6 50.84 6.75c-1.09.43-1.08 1.04-.2 1.31l4.1 1.28 9.47-5.98c.44-.27.85-.12.52.18l-7.68 6.92-.28 4.22c.41 0 .6-.19.83-.41l1.99-1.93 4.13 3.05c.77.42 1.31.2 1.5-.7l2.72-12.8C68.22.77 67.5.27 66.79.59Z" fill="#83B3D3"/></g><path d="M112.6 0H97.18C95.31 0 94 1.6 94 3.4v10.1c0 1.9 1.31 3.5 3.17 3.5h15.66c1.64 0 3.17-1.6 3.17-3.4V3.4c-.22-1.8-1.53-3.4-3.4-3.4Zm-10.94 12.54V4.46L109 8.5l-7.34 4.04Z" fill="#83B3D3"/><defs><clipPath id="a"><path fill="#fff" transform="translate(0 1.5)" d="M0 0h24v14H0z"/></clipPath><clipPath id="b"><path fill="#fff" transform="translate(50)" d="M0 0h18v17H0z"/></clipPath></defs></svg>